<?xml version="1.0" encoding="utf-8"?>
<!-- Generator: Adobe Illustrator 18.0.0, SVG Export Plug-In . SVG Version: 6.00 Build 0)  -->
<!DOCTYPE svg PUBLIC "-//W3C//DTD SVG 1.1//EN" "http://www.w3.org/Graphics/SVG/1.1/DTD/svg11.dtd">
<svg version="1.1" id="Layer_1" xmlns="http://www.w3.org/2000/svg" xmlns:xlink="http://www.w3.org/1999/xlink" x="0px" y="0px"
	 width="227.4px" height="54.4px" viewBox="0 0 227.4 54.4" enable-background="new 0 0 227.4 54.4" xml:space="preserve">
<g>
	<g>
		<defs>
			<rect id="SVGID_1_" y="0" width="227.4" height="54.4"/>
		</defs>
		<clipPath id="SVGID_2_">
			<use xlink:href="#SVGID_1_"  overflow="visible"/>
		</clipPath>
		<path clip-path="url(#SVGID_2_)" fill="#FFFFFF" d="M7,29.7c0.1-0.1,1.8,6.7,11.1,5.5c-1.8-4.4-7.6-7.3-8.9-7.4
			c0.3-0.2,1.9-1.4,2.2-1.6c-0.4,1.2,5,6.2,9.2,4.8c-1.1-3.4-5.7-6.3-6.9-6.3c0.5-0.3,1-0.6,1.5-0.9c-0.3,0.6,3.7,4.5,7.9,4.2
			c0-2-4.5-5.8-5.4-5.5c0.4-0.2,1.1-0.6,1.3-0.7c0.6,1.4,4.5,4.3,7.2,3.9c-2.2-4.7-5-4.9-5-4.9c0.7-0.4,1.2-0.6,1.3-0.6
			c0,1.2,3.9,4.1,6.5,3.4c-0.5-2.1-2.7-4.1-4.7-4.3c0.5-0.2,1-0.5,1.4-0.7c-0.2,0.4,3,3.1,6.1,2.9c-1.5-3.6-3.5-3.7-4.3-3.8
			c0.4-0.2,0.9-0.4,1.3-0.7c0.2,0.5,1.9,2.8,5.9,2.2c-1-2.2-3.2-2.9-4.3-3c0.6-0.3,1-0.5,1.4-0.7c0.3,0.3,1.3,2.5,5.4,1.7
			c-0.9-2.1-2.8-2.6-3.5-2.7c0.3-0.2,0.8-0.4,1-0.6c0.3,0.5,2.4,2,4.6,1.4c-0.4-1.3-2-2-3.5-2.1c0.6-0.4,1.2-0.8,1.2-0.8
			c0.2,0.5,1.4,1.7,4.3,0.9c-0.9-1.8-3.3-1.6-3.3-1.6c0.6-0.4,0.7-0.6,1.2-0.9c0,0,1.4,1.9,3.7,0.6c-0.7-1.1-1.7-1.6-2.8-1.3
			c0.3-0.3,0.6-0.5,0.8-0.8c-0.1,0.3,1.7,1.2,3.3,0c-0.8-0.7-1.6-0.9-2.5-0.9C42.1,8,42.2,8,42.4,7.7c0,0,1.4,1.1,2.8-0.3
			c-1.1-0.8-2.4-0.3-2.4-0.3l0.5-0.8c0.2,0.3,1.8,0.6,2.3-0.4c-0.4-0.4-1.8-0.3-2-0.2c0,0,0.2-0.3,0.3-0.5c2.9,0.3,1.9-3,1.2-4.9
			C34.4,16.8,20,5.1,2.5,15.5c-0.8,2.1-1.1,4.4-0.9,6.7c0,0.2,0,0.4,0.1,0.9c0,0.2,0.2,1.4,0.7,2.8c0.3,1,0.7,1.7,1.2,2.7
			c0.3-0.2,0.5-0.4,0.7-0.6c-0.8-1.1-3.4-7.9-0.1-11.8c3.1-0.1,3.5,8.9,2.9,9.8c0,0,1.5-1,2-1.3c-0.7-0.3-3-8,0.9-11.2
			c0,0,3.5,1.3,2,9.5c0.6-0.4,1.4-0.7,2.3-1.2c-0.4-0.8-2.8-6.6,1-9.7c2.1,0.8,2,7.2,1.1,8.6c0.7-0.3,1.4-0.7,2-1
			c-1.2-0.6-1.1-6.6,0.9-8.2c2.3,2.1,1.7,5.7,1.1,7.3c0,0,1.7-0.7,1.7-0.7c-1.4-2.6-0.7-5.6,0.7-6.9c1.1,0.7,1.4,2.8,0.9,6.2
			c0.5-0.2,0.8-0.3,1.2-0.5c-0.3-0.6-1.1-4,0.9-5.9c1.8,0.9,1.2,4.7,1,5.1c0,0,1-0.4,1-0.4c-0.4-0.8-0.6-3.6,1-5
			c0.7,0.5,1.3,1.8,0.7,4.2c0.4-0.2,0.8-0.4,1.2-0.5c-0.6-0.6-0.2-3.1,0.7-4.1c1,0.4,1.4,2.6,1.1,3.3c0.2-0.1,0.6-0.3,1-0.5
			c-0.3-0.5-0.4-2.9,0.6-3.5c1,0.7,0.9,2.4,0.8,2.8c0.3-0.2,1.1-0.6,1.1-0.6c-0.5-0.5-0.8-2,0.4-3c1,0.2,1,2.1,0.9,2.2
			c0.4-0.3,1-0.7,1.3-0.9c-0.9-0.2-0.8-1.7-0.3-2.3c0.6,0.1,1,0.5,1.2,1.6c0.2-0.2,0.8-0.7,1-0.9c-0.6,0-1.2-1.2-0.4-2
			c0.3,0.1,1,0.4,1.1,1.3C41.6,7.7,42,7.1,42,7c-0.4-0.1-0.8-1.3-0.4-1.8c0.5,0,1,0.7,1.1,1l0.5-0.7c-0.3-0.2-0.9-0.9-0.4-1.5
			c0.6,0,0.8,0.5,0.9,0.9C37.8,16.5,13.8,18.5,1.3,32.5c0,0-1.3,1.4-1.3,2l0,4.7l0.3,0C0.9,37.5,2.9,33,7,29.7"/>
		<path clip-path="url(#SVGID_2_)" fill="#FFFFFF" d="M51.9,0.4c-1.1,0-1.9,0.9-1.9,2c0,1.1,0.9,1.9,2,1.9c1.1,0,1.9-0.9,1.9-2
			C53.9,1.2,53,0.3,51.9,0.4 M53.7,2.2C53.7,3.2,52.9,4,52,4c-0.9,0-1.7-0.7-1.7-1.7c0-0.9,0.7-1.7,1.7-1.7
			C52.9,0.6,53.6,1.3,53.7,2.2"/>
		<polygon clip-path="url(#SVGID_2_)" fill="#FFFFFF" points="51.7,1.9 51.7,1.7 50.7,1.7 50.7,1.9 51.1,1.9 51.1,3.1 51.3,3.1 
			51.3,1.9 		"/>
		<polygon clip-path="url(#SVGID_2_)" fill="#FFFFFF" points="53.1,3.1 53.1,1.7 52.9,1.7 52.4,2.5 52,1.7 51.8,1.7 51.8,3.1 
			52,3.1 52,2.2 52.3,2.8 52.6,2.8 52.9,2.2 52.9,3.1 		"/>
		<path clip-path="url(#SVGID_2_)" fill="#FFFFFF" d="M48.1,47.3h-2V42h2c0.6,0,1.1,0.2,1.4,0.5c0.6,0.6,0.6,1.2,0.5,2
			c0,0.1,0,0.3,0,0.4c0,0.7,0,1.4-0.5,2C49.2,47.2,48.7,47.3,48.1,47.3 M47.2,46.4H48c0.3,0,0.6-0.1,0.8-0.3
			c0.2-0.2,0.2-0.6,0.2-1.4c0-0.8,0-1.1-0.2-1.4c-0.2-0.2-0.4-0.3-0.8-0.3h-0.8V46.4z"/>
		<path clip-path="url(#SVGID_2_)" fill="#FFFFFF" d="M25.8,47.3h-3.6v-3.6c0-0.4,0-1.1,0.2-1.3c0.2-0.3,0.4-0.4,0.9-0.4h2.5v1h-1.9
			c-0.1,0-0.3,0-0.4,0.1c-0.1,0.1-0.1,0.3-0.1,0.5v0.6h2.1v1h-2.1v1.3h2.5V47.3z"/>
		<path clip-path="url(#SVGID_2_)" fill="#FFFFFF" d="M8.8,42H5.2v3.6c0,0.4,0,1.1,0.2,1.3c0.2,0.3,0.4,0.4,0.9,0.4h2.5v-1H6.9
			c-0.1,0-0.3,0-0.4-0.1c-0.1-0.1-0.1-0.3-0.1-0.5v-0.6h2.1v-1H6.3v-1.2h2.5V42z"/>
		<path clip-path="url(#SVGID_2_)" fill="#FFFFFF" d="M32.8,46.4h2.4v1h-3.5v-4.7l0,0c0-0.3-0.1-0.5-0.4-0.6l0,0c0,0,0,0,0,0
			c0,0,0,0,0,0H32c0.4,0,0.8,0.1,0.8,1.2L32.8,46.4z"/>
		<polygon clip-path="url(#SVGID_2_)" fill="#FFFFFF" points="4.1,47.3 3.2,47.3 1.1,44.1 1.1,47.3 0,47.3 0,42 1,42 3,45.2 3,42 
			4.1,42 		"/>
		<path clip-path="url(#SVGID_2_)" fill="#FFFFFF" d="M43.9,44.4v-1.8c0-0.3-0.1-0.4-0.3-0.5l0,0c0,0,0,0,0,0c0,0,0,0,0,0h0.6
			c0.5,0,0.8,0.4,0.8,1.1l0,4.3h-1L42,44.1v3.2h-1.1V42h1l2.1,3.2V44.4z"/>
		<path clip-path="url(#SVGID_2_)" fill="#FFFFFF" d="M38.5,42.5c-0.1-0.4-0.3-0.5-0.6-0.5h-0.4l-2,5.4h1.1l0.3-0.9h1.9l0.3,0.9h1.1
			L38.5,42.5z M37.3,45.5l0.6-1.8l0.6,1.8H37.3z"/>
		<path clip-path="url(#SVGID_2_)" fill="#FFFFFF" d="M29.3,42.5C29.2,42.1,29,42,28.7,42h-0.4l-2,5.4h1.1l0.3-0.9h1.9l0.3,0.9h1.1
			L29.3,42.5z M28.1,45.5l0.6-1.8l0.6,1.8H28.1z"/>
		<path clip-path="url(#SVGID_2_)" fill="#FFFFFF" d="M11.5,45.3l1-3.3h0.8l1,3.3L15,42h1.1l-1.4,5.4h-0.9l-1-3.2l-1,3.2H11
			l-1.2-4.6c-0.1-0.5-0.3-0.6-0.6-0.7l0,0c0,0,0,0,0,0c0,0,0,0,0,0h0.7c0.5,0,0.8,0.2,0.9,0.7L11.5,45.3z"/>
		<path clip-path="url(#SVGID_2_)" fill="#FFFFFF" d="M21,43.4c0.2-0.4,0.3-0.8,0.4-1.1V42h-3.5v1h2.2l-2.3,3.5v0.9h3.6v-1h-2.3
			L21,43.4z"/>
		<polygon clip-path="url(#SVGID_2_)" fill="#A7A9AC" points="24.3,54.4 23.4,54.4 23.4,51.9 22.6,53.5 22.1,53.5 21.3,51.9 
			21.3,54.4 20.4,54.4 20.4,50 21.3,50 22.4,52.3 23.5,50 24.3,50 		"/>
		<path clip-path="url(#SVGID_2_)" fill="#A7A9AC" d="M4.9,54.4c-0.5,0-0.9-0.2-1.2-0.5c-0.4-0.4-0.4-0.9-0.4-1.7v-0.1v-0.1
			c0-0.7,0-1.2,0.4-1.7C4.1,50.2,4.5,50,4.9,50c0.5,0,0.8,0.2,1.2,0.5c0.4,0.4,0.4,1,0.4,1.7v0v0c0,0.7,0,1.3-0.4,1.7
			C5.8,54.2,5.4,54.4,4.9,54.4 M4.9,50.8c-0.2,0-0.4,0.1-0.5,0.2c-0.2,0.2-0.2,0.3-0.2,1.2c0,0.8,0,1,0.2,1.2
			c0.1,0.1,0.3,0.2,0.5,0.2c0.2,0,0.4-0.1,0.5-0.2c0.2-0.2,0.2-0.4,0.2-1.2c0-0.8,0-1-0.2-1.2C5.3,50.9,5.1,50.8,4.9,50.8"/>
		<path clip-path="url(#SVGID_2_)" fill="#A7A9AC" d="M14.6,54.4h-1l-0.8-1.7h-0.6v1.7h-0.9V50H13c0.8,0,1.4,0.5,1.4,1.3
			c0,0.5-0.3,0.9-0.8,1.1L14.6,54.4z M12.2,51.9H13c0.4,0,0.6-0.2,0.6-0.5c0-0.3-0.2-0.5-0.6-0.5h-0.8V51.9z"/>
		<path clip-path="url(#SVGID_2_)" fill="#A7A9AC" d="M18.2,54.4c-0.7,0-1.2-0.2-1.6-0.6l0,0l0.6-0.6l0,0c0.2,0.2,0.6,0.4,1,0.4
			c0.5,0,0.7-0.2,0.7-0.5c0-0.1,0-0.3-0.1-0.3c-0.1-0.1-0.2-0.1-0.4-0.1l-0.5-0.1c-0.4-0.1-0.6-0.2-0.8-0.4
			c-0.2-0.2-0.3-0.5-0.3-0.9c0-0.8,0.6-1.3,1.5-1.3c0.6,0,1,0.2,1.4,0.5l0,0l-0.6,0.5l0,0c-0.3-0.3-0.6-0.3-0.9-0.3
			c-0.4,0-0.6,0.2-0.6,0.5c0,0.1,0,0.2,0.1,0.3c0.1,0.1,0.2,0.1,0.4,0.2l0.5,0.1c0.4,0.1,0.6,0.2,0.8,0.3c0.2,0.2,0.3,0.5,0.3,0.9
			C19.8,53.9,19.1,54.4,18.2,54.4"/>
		<polygon clip-path="url(#SVGID_2_)" fill="#A7A9AC" points="2,54.4 1.1,54.4 1.1,50.8 0,50.8 0,50 3.1,50 3.1,50.8 2,50.8 		"/>
		<path clip-path="url(#SVGID_2_)" fill="#A7A9AC" d="M8.8,54.4c-0.9,0-1.6-0.6-1.6-1.5V50h0.9v2.8c0,0.5,0.3,0.8,0.7,0.8
			c0.4,0,0.7-0.3,0.7-0.8V50h0.9v2.8C10.4,53.7,9.8,54.4,8.8,54.4"/>
		<path clip-path="url(#SVGID_2_)" fill="#A7A9AC" d="M15.3,51.2v-0.6c0-0.3-0.1-0.4-0.3-0.5l0,0c0,0,0,0,0,0c0,0,0,0,0,0h0.5
			c0.3,0,0.6,0.1,0.6,0.9v3.4h-0.9L15.3,51.2z"/>
		<polygon clip-path="url(#SVGID_2_)" fill="#FFFFFF" points="155.6,7.7 155.8,6.7 155.1,6 153.2,7.1 152,6.6 151.2,4.5 150.3,4.6 
			150.4,5.6 150.2,5.9 149.6,4.9 149.7,4 149.3,2.5 147.9,1.2 146.8,1.3 146,0 145.2,0.5 146.3,1.7 146.3,2.1 149.3,6.6 149.2,8.2 
			148.7,9.8 147.5,10.7 147.6,11.4 149.4,12.3 149.8,13.1 148.8,15.1 149,15.6 149.7,15.6 150.1,16 151,15.5 152.4,13.2 153.2,11.3 
			152.9,10.9 153.3,9.9 154.2,9.9 154.3,10.4 155,10 154.9,9 155.4,8.7 		"/>
		<path clip-path="url(#SVGID_2_)" fill="#FFFFFF" d="M140.3,4.5c0-0.6,0.2-1,0.7-1c0.5,0,0.7,0.4,0.7,1v3.7c0,0.6-0.2,1-0.7,1
			c-0.5,0-0.7-0.4-0.7-1V4.5z M136.8,2.6v7.3l2.3,2.3h3.8l2.3-2.3V2.6l-2.3-2.3h-3.8L136.8,2.6z"/>
		<polygon clip-path="url(#SVGID_2_)" fill="#FFFFFF" points="142.4,26.8 143,26.7 143,26 143.7,24.3 144.4,22.3 145.3,21.7 
			146.2,21.8 146.6,21.7 146.8,21.2 146.2,20.6 146.4,20.2 147.3,19.1 147.4,18.3 147.9,18 148.6,16.7 148.4,16.3 148.5,15.8 
			148.4,15.6 148.5,15.1 147.8,14.8 146.7,15.5 146.7,15.4 146.8,14.9 146.5,14.7 146.2,14.8 146.1,14.7 146.3,14.3 146.4,14.1 
			146.3,13.8 145,14.8 144.5,16.8 143.7,17.2 143.3,19.1 140,22.2 139,22.6 137.5,24.7 136.5,27 137,27.8 138.2,27.5 138.5,27.9 
			139.1,27.9 139.1,28.3 140.3,28.4 141.4,27.8 		"/>
		<path clip-path="url(#SVGID_2_)" fill="#FFFFFF" d="M154.6,24c0,0.6-0.2,1-0.7,1c-0.5,0-0.7-0.4-0.7-1v-3.7c0-0.6,0.2-1,0.7-1
			c0.5,0,0.7,0.4,0.7,1V24z M158.1,25.8v-7.3l-2.3-2.3H152l-2.3,2.3v7.3l2.3,2.3h3.8L158.1,25.8z"/>
		<polygon clip-path="url(#SVGID_2_)" fill="#FFFFFF" points="138.5,28.5 138,28.6 138.2,29.3 137.4,30.3 137.7,30.4 139.2,30 
			139.5,29.4 139.3,29.2 		"/>
		<polygon clip-path="url(#SVGID_2_)" fill="#FFFFFF" points="94.5,28.1 100.7,28.1 100.7,0.4 97.5,0.4 95.4,2.5 91.9,2.5 91.9,7.9 
			94.5,7.9 		"/>
		<path clip-path="url(#SVGID_2_)" fill="#FFFFFF" d="M107,0.4l-3.9,3.9v19.9l3.9,3.9h6.9l3.9-3.9V4.3l-3.9-3.9H107z M111.6,22
			c0,0.6-0.4,1.1-1,1.1h-0.4c-0.5,0-1-0.4-1-1.1V6.4c0-0.6,0.4-1.1,1-1.1h0.4c0.5,0,1,0.4,1,1.1V22z"/>
		<path clip-path="url(#SVGID_2_)" fill="#FFFFFF" d="M131,28.1l3.9-3.9V4.3L131,0.4h-6.9l-3.9,3.9v19.9l3.9,3.9H131z M126.3,6.4
			c0-0.6,0.4-1.1,1-1.1h0.4c0.5,0,1,0.4,1,1.1V22c0,0.6-0.4,1.1-1,1.1h-0.4c-0.5,0-1-0.4-1-1.1V6.4z"/>
		<path clip-path="url(#SVGID_2_)" fill="#FFFFFF" d="M165.2,0.4v27.7h6.2v-9.8h4.5l3.9-3.9V4.2l-3.9-3.9H165.2z M173.6,12.3
			c0,0.6-0.4,1-1,1h-1.3v-8h1.3c0.5,0,1,0.4,1,1V12.3z"/>
		<path clip-path="url(#SVGID_2_)" fill="#FFFFFF" d="M181.7,0.4v23.8l3.9,3.9h6.9l3.9-3.9V0.4h-6.2V22c0,0.6-0.4,1.1-1,1.1h-0.4
			c-0.5,0-1-0.4-1-1.1V0.4H181.7z"/>
		<path clip-path="url(#SVGID_2_)" fill="#FFFFFF" d="M213.4,4.2l-3.9-3.9h-10.7v27.7h6.2V17.4h1.3c0.5,0,1,0.4,1,1v6.9l0.3,2.7h6.2
			l-0.3-3v-7.6l-2.7-2.7l2.7-2.7V4.2z M207.2,11.2c0,0.6-0.4,1-1,1H205V5.3h1.3c0.5,0,1,0.4,1,1V11.2z"/>
		<polygon clip-path="url(#SVGID_2_)" fill="#FFFFFF" points="215.7,28.1 227.4,28.1 227.4,22.8 221.9,22.8 221.9,16.7 226.9,16.7 
			226.9,11.4 221.9,11.4 221.9,5.7 227.4,5.7 227.4,0.4 215.7,0.4 		"/>
		<polygon clip-path="url(#SVGID_2_)" fill="#FFFFFF" points="101.4,41.2 101.2,41.2 99.1,32.3 94.5,32.3 94.5,54.3 99.1,54.3 
			99.1,44.8 99.3,44.8 101.8,54.3 106,54.3 106,32.3 101.4,32.3 		"/>
		<polygon clip-path="url(#SVGID_2_)" fill="#FFFFFF" points="107.9,54.3 117.2,54.3 117.2,50.1 112.8,50.1 112.8,45.3 116.8,45.3 
			116.8,41.1 112.8,41.1 112.8,36.5 117.2,36.5 117.2,32.3 107.9,32.3 		"/>
		<polygon clip-path="url(#SVGID_2_)" fill="#FFFFFF" points="141.2,36.5 145.9,36.5 141.3,50.5 141.3,54.3 151.3,54.3 151.3,50.1 
			146.7,50.1 151.3,36.3 151.3,32.3 141.2,32.3 		"/>
		<polygon clip-path="url(#SVGID_2_)" fill="#FFFFFF" points="152.8,54.3 162.1,54.3 162.1,50.1 157.8,50.1 157.8,45.3 161.7,45.3 
			161.7,41.1 157.8,41.1 157.8,36.5 162.1,36.5 162.1,32.3 152.8,32.3 		"/>
		<polygon clip-path="url(#SVGID_2_)" fill="#FFFFFF" points="177.8,32.3 177.8,54.3 186.6,54.3 186.6,50.1 182.6,50.1 182.6,32.3 
					"/>
		<polygon clip-path="url(#SVGID_2_)" fill="#FFFFFF" points="209.2,41.2 209,41.2 206.9,32.3 202.3,32.3 202.3,54.3 206.9,54.3 
			206.9,44.8 207.1,44.8 209.6,54.3 213.8,54.3 213.8,32.3 209.2,32.3 		"/>
		<path clip-path="url(#SVGID_2_)" fill="#FFFFFF" d="M215.7,54.3h8.5l3.1-3.1V35.4l-3.1-3.1h-8.5V54.3z M220.6,36.2h1
			c0.4,0,0.8,0.3,0.8,0.8v12.6c0,0.5-0.3,0.8-0.8,0.8h-1V36.2z"/>
		<polygon clip-path="url(#SVGID_2_)" fill="#FFFFFF" points="130.3,42.5 130.1,42.5 129.1,32.3 125.5,32.3 124.5,42.5 124.2,42.5 
			123.1,32.3 118.5,32.3 121.3,54.3 125.7,54.3 127,44.8 127.2,44.8 128.5,54.3 132.9,54.3 135.7,32.3 131.4,32.3 		"/>
		<path clip-path="url(#SVGID_2_)" fill="#FFFFFF" d="M166.8,32.3l-3.5,22h4.7l0.4-3.6h2.9l0.4,3.6h4.9l-3.5-22H166.8z M168.9,46.8
			l0.9-7.2h0.2l0.9,7.2H168.9z"/>
		<path clip-path="url(#SVGID_2_)" fill="#FFFFFF" d="M191.2,32.3l-3.5,22h4.7l0.4-3.6h2.9l0.4,3.6h4.9l-3.5-22H191.2z M193.3,46.8
			l0.9-7.2h0.2l0.9,7.2H193.3z"/>
		<rect x="71.6" y="0.4" clip-path="url(#SVGID_2_)" fill="#A7A9AC" width="1.4" height="54"/>
	</g>
</g>
</svg>
